<?xml version="1.0" encoding="UTF-8"?>
<svg width="353px" height="191px" viewBox="0 0 353 191" version="1.1" xmlns="http://www.w3.org/2000/svg" xmlns:xlink="http://www.w3.org/1999/xlink">
    <!-- Generator: Sketch 52.2 (67145) - http://www.bohemiancoding.com/sketch -->
    <title>mac_eng_logo</title>
    <desc>Created with Sketch.</desc>
    <g id="Page-1" stroke="none" stroke-width="1" fill="none" fill-rule="evenodd">
        <g id="Artboard" transform="translate(-195.000000, -196.000000)">
            <g id="mac_eng_logo" transform="translate(162.000000, 80.000000)">
                <polygon id="Path" fill-opacity="0" fill="#FFFFFF" points="0 0 416.472808 0 416.472808 416.472808 0 416.472808"></polygon>
                <path d="M383.205715,191.720611 L297.100617,191.720611 L297.100617,256.798539 C298.556876,272.40471 314.026927,298.062093 339.688632,305.998057 L340.086187,306.129855 L340.217984,306.129855 L340.351943,306.263813 L340.483741,306.129855 L340.615539,306.129855 L341.013093,305.998057 C366.674798,298.059933 382.280969,272.272912 383.60543,256.666741 L383.60543,191.720611 L383.205715,191.720611 Z" id="Path" fill="#FFFFFF"></path>
                <path d="M340.613378,200.583482 L354.897249,200.583482 L354.897249,214.206202 L343.128342,214.206202 C343.128342,214.206202 342.203596,212.222751 340.48158,212.222751 C338.895684,212.222751 337.966617,214.206202 337.966617,214.206202 L326.19771,214.206202 L326.19771,200.583482 L340.613378,200.583482 Z" id="Path" fill="#6F2046"></path>
                <path d="M340.217984,217.382316 L381.354062,217.382316 L381.354062,256.666741 C380.16356,270.153342 366.141124,295.946845 340.351943,303.880648 C314.690238,295.946845 300.536005,270.155503 299.345503,256.666741 L299.345503,217.382316 L340.48158,217.382316 L340.217984,217.382316 Z M312.974705,213.808648 L314.029088,213.808648 C313.635855,213.547212 313.104342,213.281456 313.104342,212.222751 C312.972544,210.766492 313.370098,209.712109 313.370098,209.712109 L316.939446,209.973544 L316.146497,208.787363 L319.981601,205.345492 L318.922896,204.947938 L319.586207,202.435135 L317.205202,202.964487 L316.803326,201.776145 L315.221751,203.627798 L315.619306,199.263342 L314.294845,200.453845 L312.708948,197.409528 L311.25701,200.453845 L309.932549,199.263342 L310.330104,203.627798 L308.744207,201.776145 L308.217016,202.964487 L305.963487,202.435135 L306.631119,204.947938 L305.572415,205.345492 L309.27356,208.787363 L308.61457,209.973544 L312.179596,209.712109 C312.179596,209.712109 312.57715,210.766492 312.449674,212.222751 C312.449674,213.281456 311.786363,213.547212 311.520606,213.808648 L312.974705,213.808648 Z M367.597383,213.808648 L366.543,213.808648 C366.940554,213.547212 367.467746,213.281456 367.467746,212.222751 C367.599544,210.766492 367.206311,209.712109 367.206311,209.712109 L363.632642,209.973544 L364.295953,208.787363 L360.590487,205.345492 L361.649192,204.947938 L360.985881,202.435135 L363.366886,202.964487 L363.768762,201.776145 L365.350337,203.627798 L364.952782,199.263342 L366.272922,200.453845 L367.733503,197.409528 L369.319399,200.453845 L370.639539,199.263342 L370.241984,203.627798 L371.827881,201.776145 L372.225435,202.964487 L374.610762,202.435135 L373.947451,204.947938 L375.001834,205.345492 L371.300689,208.787363 L371.959679,209.973544 L368.394653,209.712109 C368.394653,209.712109 367.997098,210.766492 368.128896,212.222751 C368.128896,213.281456 368.656088,213.547212 369.053642,213.808648 L367.597383,213.808648 Z M340.613378,210.900451 C342.203596,209.178435 346.697689,211.825197 348.153948,211.954834 C348.946896,212.088793 352.518404,212.088793 352.518404,212.088793 L352.518404,198.463912 L350.80071,198.463912 C350.80071,198.463912 348.153948,198.59787 346.829487,198.066358 C345.509347,197.537005 342.203596,196.348663 340.613378,198.727508 C338.895684,196.346503 335.587772,197.537005 334.265472,198.066358 C332.94101,198.59787 330.29857,198.463912 330.29857,198.463912 L328.576554,198.463912 L328.576554,212.088793 C328.576554,212.088793 332.145902,212.088793 332.94101,211.954834 C334.39943,211.825197 338.897845,209.178435 340.613378,210.900451 Z" id="Shape" fill="#EEC96F" fill-rule="nonzero"></path>
                <path d="M340.086187,210.505057 C340.237826,210.666819 340.416155,210.801297 340.613378,210.902611 C340.613378,210.768653 340.883456,210.636855 341.010933,210.505057 L341.010933,198.204637 C340.883456,198.334275 340.613378,198.468233 340.613378,198.731829 C340.48158,198.466073 340.215824,198.334275 340.086187,198.204637 L340.086187,210.505057 Z M334.794824,234.17899 C334.794824,234.17899 338.895684,234.440425 339.293238,230.871078 C339.293238,230.871078 339.554674,233.651798 340.483741,233.651798 C341.408487,233.651798 341.408487,230.871078 341.408487,230.871078 C342.864746,234.706181 346.438415,234.842301 346.438415,234.842301 C343.396259,232.85885 343.525896,227.169933 343.525896,226.774539 C343.787332,223.99814 346.172658,224.259575 346.302295,222.673679 C346.568052,220.292674 343.787332,220.826347 343.787332,220.826347 C343.787332,220.826347 344.982155,220.826347 345.243591,221.353539 C345.775104,222.673679 343.525896,222.809798 343.525896,222.809798 C340.749497,223.602746 339.82043,221.885052 338.766047,221.751093 C337.836979,221.617135 337.575544,222.282606 337.441585,222.414404 C337.175829,222.675839 332.943171,222.941596 332.018425,223.866342 C331.093679,224.925047 331.225477,226.251668 331.886627,227.040295 C331.886627,227.040295 332.284181,225.454399 333.870078,225.454399 C335.455974,225.454399 338.102736,227.442171 338.766047,228.632674 C338.102736,228.764472 332.018425,229.159865 331.225477,228.500876 C330.698285,228.103321 330.171093,227.442171 330.171093,226.910658 C330.171093,226.910658 329.769218,228.500876 330.564326,229.028067 C331.361596,229.425622 331.493394,229.425622 332.020585,229.425622 C332.41814,229.425622 338.236694,229.293824 338.900005,229.293824 C338.768207,229.687057 338.900005,230.875399 337.579865,230.875399 L332.683896,230.875399 C332.683896,230.875399 332.549938,232.19986 334.535549,231.672668 C334.933104,231.54087 336.121446,231.141155 336.519,231.804466 C336.778275,232.325176 337.707342,233.781435 334.794824,234.17899 Z M337.968777,276.369451 C336.251083,277.428155 333.342886,276.503409 333.342886,276.503409 C333.342886,276.503409 333.342886,277.300679 330.696124,278.355062 C326.861021,280.072756 322.758,284.169295 328.049363,290.260088 C328.049363,290.260088 325.800155,283.380668 329.369503,281.794772 C329.369503,281.794772 332.282021,284.702969 336.644316,278.882254 C337.575544,277.693912 337.968777,276.369451 337.968777,276.369451 Z M328.183321,252.036528 C328.051523,253.88386 327.785767,253.88386 326.19987,254.812927 C326.19987,254.812927 325.53656,254.149617 325.270803,253.488466 C324.21642,251.636813 325.934114,248.728617 325.934114,248.728617 C324.082461,250.977824 321.435699,250.180554 321.435699,250.180554 C321.569658,248.333223 324.21642,246.479409 324.21642,246.479409 C321.835415,247.006601 319.849803,245.686461 319.849803,245.686461 C320.513114,244.366321 323.028078,242.778264 323.028078,242.778264 C320.647073,242.644306 318.927218,241.056249 318.927218,241.056249 C319.720166,240.131503 322.366927,238.675244 322.366927,238.675244 C321.042466,237.882295 319.851964,235.633088 319.851964,235.633088 C321.707938,234.704021 323.823187,234.84014 323.823187,234.84014 C320.383477,232.325176 324.084622,225.581876 324.084622,225.581876 C323.55743,235.898845 331.495554,233.118124 330.964041,238.411648 C330.43685,242.778264 325.677,239.60215 325.677,239.60215 C324.884052,245.686461 328.323762,246.215813 328.323762,246.215813 C328.323762,246.215813 328.189803,247.672073 328.058005,249.26229 C328.051523,251.109622 328.31728,251.239259 328.183321,252.036528 Z" id="Shape" fill="#6F2046" fill-rule="nonzero"></path>
                <path d="M317.734554,267.115508 C328.710513,266.849751 330.698285,258.518394 330.698285,258.518394 C329.63958,257.057813 329.373824,256.133067 329.373824,256.133067 L329.242026,255.735513 C328.449078,256.528461 325.672679,257.587166 325.672679,257.587166 C325.672679,257.587166 324.082461,256.130907 323.689228,255.603715 C322.630523,254.013497 322.494404,252.956953 322.494404,252.956953 C320.647073,252.956953 318.925057,251.371057 318.925057,251.371057 C318.793259,249.653363 319.588368,248.197104 319.588368,248.197104 C318.268228,247.665591 316.807648,246.209332 316.807648,246.209332 C317.736715,244.362 318.268228,243.828326 318.268228,243.828326 C316.150819,242.110632 316.150819,241.051927 316.150819,241.051927 C316.67801,239.731788 318.531824,238.275528 318.531824,238.275528 C317.738876,237.216824 316.945927,234.967617 316.945927,234.967617 C318.531824,233.515679 319.988083,232.984166 319.988083,232.984166 C319.722326,232.191218 319.722326,231.26215 319.854124,230.473523 C319.854124,230.473523 307.292269,223.857699 305.840332,219.627202 C305.840332,219.627202 305.308819,223.328347 305.438456,225.843311 C305.704212,227.95856 309.012124,231.532228 317.211684,236.955389 C312.181756,236.158119 305.306658,233.515679 303.850399,230.866756 C303.850399,230.866756 303.850399,234.70186 304.779466,236.955389 C305.438456,238.80272 308.876005,240.129342 316.945927,244.096244 C312.979026,246.211492 305.965648,243.830487 303.986518,241.847036 C303.986518,241.847036 305.177021,245.286746 306.367523,247.270197 C307.292269,248.590337 310.59586,250.839544 318.272549,249.655523 C315.360031,253.22487 309.939031,255.867311 306.233565,254.149617 C306.233565,254.149617 306.63544,257.589326 308.880326,258.516233 C310.466223,259.30486 314.037731,259.702415 319.59485,255.337959 C316.15514,263.803275 307.95558,261.156513 307.95558,261.156513 C307.95558,261.156513 309.939031,264.460104 312.05644,265.654927 C314.03557,266.713632 318.006793,265.916363 324.352539,258.911627 C324.346057,258.915948 323.950663,265.127736 317.734554,267.115508 Z M331.886627,260.76328 C331.886627,260.76328 334.001876,263.805435 334.663026,265.784565 C334.663026,265.784565 330.430368,269.490031 331.223316,273.590891 C331.223316,273.590891 329.767057,270.682694 330.696124,268.433487 C330.827922,268.167731 331.223316,266.977228 331.223316,266.977228 C331.223316,266.977228 327.522171,268.694922 325.139005,267.374782 C325.139005,267.374782 327.785767,267.772337 330.696124,263.142124 C332.150223,260.633642 331.886627,260.76328 331.886627,260.76328 Z" id="Shape" fill="#6F2046" fill-rule="nonzero"></path>
                <path d="M317.602756,273.327295 C317.071244,273.327295 315.221751,272.668306 314.690238,274.124565 C314.163047,275.70614 316.146497,276.50557 317.205202,275.576503 C318.525342,274.522119 320.379155,274.522119 320.774549,275.178948 C321.035984,275.576503 321.306062,276.369451 319.584047,277.564275 C319.052534,277.961829 316.280456,279.679523 318.263907,281.531176 C318.922896,282.194487 320.644912,281.928731 321.172104,279.415927 C321.433539,277.564275 322.09685,276.635207 322.758,276.237653 C323.155554,276.105855 324.214259,275.840098 324.875409,276.237653 L325.402601,276.769166 C326.456984,277.428155 327.651808,276.635207 327.386052,275.444705 C327.120295,274.254202 326.061591,274.519959 325.402601,274.917513 C324.875409,275.178948 324.212098,274.917513 324.212098,274.917513 C323.684907,274.651756 323.548788,274.124565 324.343896,273.72701 C327.651808,272.136793 328.315119,270.287301 328.315119,270.287301 C326.724902,270.548736 325.402601,270.021544 325.402601,270.021544 C325.402601,270.021544 322.360446,274.122404 320.111238,273.063699 C319.31829,272.666145 319.052534,271.477803 319.052534,270.814492 C319.052534,269.62399 317.732394,269.096798 316.937285,269.889746 C316.278295,270.682694 317.069083,271.60744 317.730233,271.873197 C318.261746,272.007155 318.920736,272.536508 318.654979,272.931902 C318.395705,273.461254 318.000311,273.195497 317.602756,273.327295 Z M316.407933,268.833202 C316.407933,268.833202 315.880741,269.098959 315.748943,269.757948 C315.748943,269.757948 314.55844,268.833202 313.765492,270.155503 C313.767653,270.153342 314.029088,268.044575 316.407933,268.833202 Z M313.501896,274.522119 C313.501896,274.522119 313.23614,275.049311 313.767653,275.974057 C313.767653,275.974057 312.311394,276.50557 313.370098,278.489021 C313.370098,278.489021 311.120891,276.369451 313.501896,274.522119 Z M316.673689,281.129301 C316.673689,281.129301 316.541891,281.796933 317.337,282.453762 C317.337,282.453762 316.146497,283.512466 317.734554,284.968728 C317.734554,284.970886 314.955995,283.780383 316.673689,281.129301 Z M328.449078,276.635207 C328.846632,276.769166 329.108067,277.162399 328.976269,278.357223 C328.976269,278.357223 330.432528,276.771326 328.449078,275.576503 C328.449078,275.576503 328.31728,275.576503 328.183321,275.444705 C328.183321,275.444705 328.449078,276.108016 328.183321,276.503409 C328.183321,276.50557 328.31728,276.635207 328.449078,276.635207 Z M352.256969,276.50557 C351.859415,276.771326 351.459699,277.16456 351.725456,278.223264 C351.725456,278.223264 350.143881,276.637368 352.256969,275.446865 L352.388767,275.446865 C352.388767,275.446865 352.256969,275.974057 352.520565,276.50557 L352.256969,276.50557 Z M340.483741,236.823591 C341.542446,236.426036 341.94,235.633088 341.94,235.633088 C342.732948,236.562155 344.848197,237.089347 345.906902,237.218984 C348.421865,243.832648 353.840705,247.797389 348.81942,256.796378 C343.528057,266.054642 339.690793,267.374782 347.097404,273.72701 C347.097404,273.72701 342.337554,275.04715 341.27885,270.950611 C341.27885,270.950611 341.544606,275.444705 340.485902,276.635207 C339.295399,275.444705 339.556834,271.082409 339.556834,271.082409 C338.502451,275.049311 333.742601,273.729171 333.742601,273.729171 C341.149212,267.379104 337.311948,266.056803 332.020585,256.798539 C326.994979,247.80171 332.547777,243.834808 335.062741,237.221145 C336.121446,237.089347 338.104896,236.693953 339.029642,235.769207 C339.027482,235.769207 339.429358,236.428197 340.483741,236.823591 Z M342.998705,276.369451 C344.712078,277.428155 347.624596,276.503409 347.624596,276.503409 C347.624596,276.503409 347.492798,277.300679 350.143881,278.355062 C353.974663,280.072756 358.207321,284.169295 352.786321,290.260088 C352.786321,290.260088 355.035528,283.380668 351.591497,281.794772 C351.591497,281.794772 348.553663,284.702969 344.189207,278.882254 C343.396259,277.693912 342.998705,276.369451 342.998705,276.369451 Z M352.654523,252.036528 C352.786321,253.88386 353.047756,253.88386 354.769772,254.812927 C354.769772,254.812927 355.301285,254.149617 355.694518,253.488466 C356.623585,251.636813 355.035528,248.728617 355.035528,248.728617 C356.88286,250.977824 359.529622,250.180554 359.529622,250.180554 C359.268187,248.333223 356.757544,246.479409 356.757544,246.479409 C359.138549,247.006601 360.985881,245.686461 360.985881,245.686461 C360.326891,244.366321 357.811927,242.778264 357.811927,242.778264 C360.192933,242.644306 361.912788,241.056249 361.912788,241.056249 C361.249477,240.131503 358.468756,238.675244 358.468756,238.675244 C359.793218,237.882295 361.119839,235.633088 361.119839,235.633088 C359.268187,234.704021 357.018979,234.84014 357.018979,234.84014 C360.458689,232.325176 356.757544,225.581876 356.757544,225.581876 C357.284736,235.898845 349.346611,233.118124 350.009922,238.411648 C350.407477,242.778264 355.167326,239.60215 355.167326,239.60215 C355.960275,245.686461 352.520565,246.215813 352.520565,246.215813 C352.520565,246.215813 352.654523,247.672073 352.786321,249.26229 C352.784161,251.109622 352.654523,251.239259 352.654523,252.036528 Z" id="Shape" fill="#6F2046" fill-rule="nonzero"></path>
                <path d="M363.228606,267.115508 C352.256969,266.849751 350.269197,258.518394 350.269197,258.518394 C351.327902,257.057813 351.459699,256.133067 351.459699,256.133067 L351.591497,255.735513 C352.388767,256.528461 355.165166,257.587166 355.165166,257.587166 C355.165166,257.587166 356.755383,256.130907 357.148617,255.603715 C358.207321,254.013497 358.339119,252.956953 358.339119,252.956953 C360.190772,252.956953 361.912788,251.371057 361.912788,251.371057 C362.044585,249.653363 361.381275,248.197104 361.381275,248.197104 C362.705736,247.665591 364.028036,246.209332 364.028036,246.209332 C363.10329,244.362 362.567456,243.828326 362.567456,243.828326 C364.689187,242.110632 364.820984,241.051927 364.820984,241.051927 C364.293793,239.731788 362.306021,238.275528 362.306021,238.275528 C363.10329,237.216824 363.896238,234.967617 363.896238,234.967617 C362.439979,233.515679 360.98372,232.984166 360.98372,232.984166 C361.117676,232.152645 361.117676,231.305044 360.98372,230.473523 C360.98372,230.473523 373.681694,223.857699 375.001834,219.627202 C375.001834,219.627202 375.665145,223.328347 375.399389,225.843311 C375.137953,227.95856 371.830041,231.532228 363.76444,236.955389 C368.656088,236.158119 375.529026,233.515679 376.989606,230.866756 C376.989606,230.866756 376.989606,234.70186 376.196658,236.955389 C375.529026,238.80272 371.959679,240.129342 364.025876,244.096244 C367.860979,246.211492 374.872197,243.830487 376.855648,241.847036 C376.855648,241.847036 375.801264,245.286746 374.474642,247.270197 C373.681694,248.590337 370.378104,250.839544 362.705736,249.655523 C365.482135,253.22487 371.034933,255.867311 374.740399,254.149617 C374.740399,254.149617 374.342845,257.589326 372.093637,258.516233 C370.375943,259.30486 366.936233,259.702415 361.247316,255.337959 C364.687026,263.803275 372.886585,261.156513 372.886585,261.156513 C372.886585,261.156513 370.903135,264.460104 368.785725,265.654927 C366.802275,266.713632 362.831052,265.916363 356.489627,258.911627 C356.489627,258.915948 356.88286,265.127736 363.228606,267.115508 Z M349.078694,260.76328 C349.078694,260.76328 346.829487,263.805435 346.170497,265.784565 C346.170497,265.784565 350.534953,269.490031 349.739845,273.590891 C349.739845,273.590891 351.196104,270.682694 350.14172,268.433487 C350.007762,268.167731 349.610207,266.977228 349.610207,266.977228 C349.610207,266.977228 353.311352,268.694922 355.690197,267.374782 C355.690197,267.374782 353.179554,267.772337 350.267036,263.142124 C348.683301,260.633642 349.078694,260.76328 349.078694,260.76328 Z" id="Shape" fill="#6F2046" fill-rule="nonzero"></path>
                <path d="M363.228606,273.327295 C363.76444,273.327295 365.747891,272.668306 366.141124,274.124565 C366.804435,275.70614 364.820984,276.50557 363.630482,275.576503 C362.439979,274.522119 360.588326,274.522119 360.061135,275.178948 C359.929337,275.576503 359.66358,276.369451 361.251637,277.564275 C361.778829,277.961829 364.559549,279.679523 362.707896,281.531176 C362.044585,282.194487 360.192933,281.928731 359.665741,279.415927 C359.399984,277.564275 358.740995,276.635207 358.075523,276.237653 C357.814088,276.105855 356.623585,275.840098 355.960275,276.237653 L355.433083,276.769166 C354.504016,277.428155 353.183876,276.635207 353.445311,275.444705 C353.711067,274.254202 354.769772,274.519959 355.433083,274.917513 C355.960275,275.178948 356.623585,274.917513 356.623585,274.917513 C357.150777,274.651756 357.286896,274.124565 356.491788,273.72701 C353.183876,272.136793 352.520565,270.287301 352.520565,270.287301 C354.106461,270.548736 355.433083,270.021544 355.433083,270.021544 C355.433083,270.021544 358.470917,274.122404 360.720124,273.063699 C361.517394,272.666145 361.778829,271.477803 361.778829,270.814492 C361.778829,269.62399 363.230767,269.096798 363.896238,269.889746 C364.559549,270.682694 363.76444,271.60744 363.10329,271.873197 C362.705736,272.007155 362.044585,272.536508 362.306021,272.931902 C362.567456,273.461254 362.971492,273.195497 363.228606,273.327295 Z M364.42343,268.833202 C364.42343,268.833202 365.08242,269.098959 365.08242,269.757948 C365.08242,269.757948 366.272922,268.833202 367.070192,270.155503 C367.070192,270.153342 366.938394,268.044575 364.42343,268.833202 Z M367.335948,274.522119 C367.335948,274.522119 367.597383,275.049311 367.070192,275.974057 C367.070192,275.974057 368.526451,276.50557 367.597383,278.489021 C367.597383,278.489021 369.714793,276.369451 367.335948,274.522119 Z M364.291632,281.129301 C364.291632,281.129301 364.291632,281.796933 363.498684,282.453762 C363.498684,282.453762 364.689187,283.512466 363.10113,284.968728 C363.10329,284.970886 365.879689,283.780383 364.291632,281.129301 Z M340.483741,279.813482 C340.749497,279.679523 341.147052,279.547725 341.542446,279.150171 C341.542446,279.150171 344.318845,285.763834 350.666751,285.100523 C350.666751,285.100523 350.269197,286.556782 347.758554,286.68642 C347.758554,286.68642 352.12301,288.66987 349.610207,290.653321 C348.024311,291.977782 346.697689,288.272316 346.697689,288.272316 C346.697689,288.272316 346.565891,291.712026 343.655534,291.712026 C343.655534,291.712026 348.02215,289.197062 343.394098,283.24671 C343.92129,287.34757 342.335394,291.314472 340.48158,291.314472 C338.49813,291.314472 337.04187,287.34757 337.439425,283.24671 C332.94101,289.197062 337.307627,291.712026 337.307627,291.712026 C334.395109,291.712026 334.133674,288.272316 334.133674,288.272316 C334.133674,288.272316 332.813534,291.977782 331.221155,290.653321 C328.706192,288.66987 333.072808,286.68642 333.072808,286.68642 C330.557845,286.554622 330.164611,285.100523 330.164611,285.100523 C336.512518,285.763834 339.422876,279.150171 339.422876,279.150171 C339.82043,279.547725 340.086187,279.677363 340.483741,279.813482 Z" id="Shape" fill="#6F2046" fill-rule="nonzero"></path>
                <path d="M339.82043,224.391373 L339.554674,223.20087 L339.427197,223.332668 L335.987487,224.65713 L337.834819,224.523171 C337.703021,224.65713 337.703021,224.788927 337.703021,224.920725 C337.703021,225.31828 337.964456,225.713674 338.495969,225.713674 C338.893523,225.713674 339.154959,225.316119 339.154959,224.920725 C339.154959,224.788927 339.154959,224.65929 339.023161,224.523171 L339.686472,224.391373 L339.82043,224.391373 Z M349.214813,248.333223 C348.551503,247.14272 347.890352,246.747326 347.363161,246.48157 C347.229202,246.349772 347.097404,246.215813 347.097404,245.950057 C346.304456,244.895674 344.982155,244.763876 344.055249,245.029632 C343.657694,245.157109 343.528057,245.291067 343.396259,245.422865 L343.528057,245.157109 C343.528057,245.029632 343.528057,245.029632 343.659855,245.029632 C343.791653,244.895674 343.925611,244.627756 344.057409,244.100565 C344.542204,242.997259 344.149467,241.705263 343.132663,241.058409 C343.000865,241.058409 342.866907,240.926611 342.60115,240.796974 C342.469352,240.265461 342.073959,239.60215 340.887777,238.945321 L340.485902,238.811363 L340.220145,238.945321 C339.029642,239.604311 338.634249,240.265461 338.502451,240.796974 C338.236694,240.928772 338.104896,241.058409 337.970938,241.058409 C336.780435,241.851358 336.650798,243.175819 337.046192,244.100565 C337.17799,244.627756 337.311948,244.893513 337.443746,245.029632 L337.577705,245.157109 L337.709503,245.422865 C337.577705,245.291067 337.311948,245.157109 337.046192,245.029632 C336.121446,244.763876 334.796984,244.895674 334.004036,245.950057 C333.872238,246.215813 333.742601,246.351933 333.742601,246.48157 C333.07929,246.747326 332.41814,247.144881 331.890948,248.333223 L331.625192,248.594658 L331.890948,248.996534 C332.41814,250.182715 333.081451,250.448472 333.742601,250.714228 C333.742601,250.846026 333.874399,251.111782 334.004036,251.24142 C334.796984,252.300124 336.121446,252.56156 337.046192,252.170487 C337.577705,251.904731 337.709503,251.772933 337.970938,251.638974 C337.970938,251.638974 338.236694,251.507176 338.368492,251.377539 L338.368492,254.415373 L337.970938,254.153938 L337.577705,254.817249 L337.443746,254.817249 C337.311948,255.078684 337.17799,255.210482 337.046192,255.741995 C336.56237,256.845358 336.95491,258.136707 337.970938,258.78415 C338.104896,258.918109 338.236694,258.918109 338.502451,259.045585 C338.634249,259.708896 339.029642,260.370047 340.220145,260.897238 L340.485902,261.031197 L340.887777,260.897238 C342.073959,260.370047 342.469352,259.706736 342.60115,259.045585 C342.866907,258.918109 343.003026,258.918109 343.132663,258.78415 C344.149467,258.137296 344.542204,256.8453 344.057409,255.741995 C343.925611,255.210482 343.791653,255.078684 343.659855,254.817249 L343.528057,254.817249 L343.130503,254.153938 L342.732948,254.415373 L342.732948,251.377539 L343.130503,251.638974 C343.262301,251.772933 343.528057,251.904731 344.055249,252.170487 C344.984316,252.56372 346.304456,252.302285 347.097404,251.24142 C347.097404,251.109622 347.229202,250.843865 347.363161,250.714228 C347.890352,250.448472 348.553663,250.182715 349.214813,248.996534 L349.346611,248.594658 L349.214813,248.333223 Z" id="Shape" fill="#EEC96F" fill-rule="nonzero"></path>
                <path d="M347.363161,248.594658 C347.363161,248.46286 346.69985,247.669912 345.777264,247.80171 C345.909166,247.507572 345.909166,247.171102 345.777264,246.876964 C345.37971,246.349772 344.714238,246.349772 344.58244,246.479409 L344.321005,246.479409 L344.454964,246.611207 C344.454964,246.611207 344.58244,246.745166 344.58244,247.008762 C344.58244,247.14272 344.58244,247.540275 344.189207,247.80171 C344.055249,247.935668 343.525896,247.935668 343.396259,247.935668 L341.27885,247.935668 L341.27885,244.627756 C341.27885,244.495959 341.27885,243.968767 341.410648,243.834808 C341.676404,243.437254 341.942161,243.437254 342.207917,243.437254 C342.339715,243.437254 342.469352,243.571212 342.469352,243.571212 L342.60115,243.70301 L342.735109,243.571212 C342.866907,243.305456 342.866907,242.778264 342.337554,242.38071 C341.94,242.114953 341.544606,242.114953 341.27885,242.246751 C341.544606,241.317684 340.615539,240.660855 340.615539,240.660855 L340.483741,240.660855 C340.483741,240.660855 339.554674,241.319845 339.82043,242.246751 C339.554674,242.114953 339.157119,242.114953 338.766047,242.38071 C338.234534,242.778264 338.234534,243.305456 338.364171,243.571212 L338.49813,243.70301 L338.629927,243.571212 C338.629927,243.571212 338.763886,243.437254 338.895684,243.437254 C339.157119,243.437254 339.427197,243.437254 339.688632,243.834808 C339.82043,243.968767 339.82043,244.498119 339.82043,244.627756 L339.82043,247.935668 L337.575544,247.935668 C337.441585,247.935668 336.912233,247.935668 336.778275,247.80171 C336.385041,247.540275 336.385041,247.14272 336.385041,247.008762 C336.385041,246.747326 336.516839,246.611207 336.516839,246.611207 L336.648637,246.479409 L336.516839,246.479409 C336.251083,246.347611 335.723891,246.347611 335.322016,246.876964 C335.090519,247.128033 335.03808,247.495964 335.190218,247.80171 C334.265472,247.669912 333.604321,248.465021 333.604321,248.594658 L333.604321,248.728617 C333.604321,248.728617 334.267632,249.657684 335.190218,249.387606 C335.035414,249.694364 335.088003,250.065073 335.322016,250.316674 C335.723891,250.979984 336.251083,250.843865 336.516839,250.714228 L336.648637,250.714228 L336.516839,250.58243 C336.516839,250.58243 336.385041,250.448472 336.385041,250.180554 C336.385041,250.048756 336.385041,249.787321 336.778275,249.387606 C336.912233,249.26013 337.441585,249.26013 337.575544,249.26013 L339.82043,249.26013 L339.82043,255.206161 C339.82043,255.340119 339.82043,255.869472 339.688632,256.00343 C339.427197,256.400984 339.157119,256.400984 338.895684,256.400984 C338.763886,256.400984 338.629927,256.267026 338.629927,256.267026 L338.49813,256.135228 L338.364171,256.267026 C338.232373,256.532782 338.232373,257.059974 338.766047,257.457528 C339.15928,257.723285 339.554674,257.723285 339.82043,257.591487 C339.554674,258.520554 340.483741,259.177383 340.483741,259.177383 L340.615539,259.177383 C340.615539,259.177383 341.544606,258.518394 341.27885,257.591487 C341.544606,257.723285 341.942161,257.723285 342.337554,257.457528 C342.864746,257.059974 342.864746,256.532782 342.735109,256.267026 L342.60115,256.135228 L342.469352,256.267026 C342.469352,256.267026 342.337554,256.400984 342.207917,256.400984 C341.942161,256.400984 341.676404,256.400984 341.410648,256.00343 C341.27885,255.869472 341.27885,255.340119 341.27885,255.206161 L341.27885,249.26013 L343.396259,249.26013 C343.657694,249.26013 344.055249,249.26013 344.189207,249.387606 C344.58244,249.789482 344.58244,250.050917 344.58244,250.180554 C344.58244,250.446311 344.454964,250.58243 344.454964,250.58243 L344.321005,250.714228 L344.58244,250.714228 C344.714238,250.846026 345.37971,250.979984 345.777264,250.316674 C345.90908,250.021011 345.90908,249.683269 345.777264,249.387606 C346.70201,249.657684 347.363161,248.728617 347.363161,248.728617 L347.494959,248.594658 L347.363161,248.594658 Z" id="Path" fill="#6F2046"></path>
                <path d="M52.0083264,118.069337 C51.4379223,116.479119 51.4379223,116.479119 50.5434249,116.479119 C49.8131347,116.479119 49.1606269,116.567705 48.4303368,116.567705 C47.2117461,116.65629 45.9088912,116.65629 44.6903005,116.65629 C39.4875233,116.65629 39.8937202,116.479119 37.6164249,116.479119 C36.0715803,116.479119 35.9095337,117.274228 35.9095337,117.805741 C35.9095337,118.160083 35.9916373,119.218788 37.4543782,119.218788 C38.5109223,119.218788 39.4875233,119.130202 40.5440674,119.218788 C44.2841036,119.484544 44.042114,122.66714 43.8779067,125.581819 L41.1944145,167.208358 C40.6240104,176.576813 38.1025648,175.427363 34.7687254,175.604534 C34.0384352,175.604534 33.1439378,175.87029 33.1439378,177.01758 C33.1439378,178.255617 34.2825855,178.344202 34.9329326,178.344202 C37.6164249,178.344202 40.2999171,177.812689 42.9834093,177.812689 C45.8289482,177.812689 48.7565907,178.344202 51.6021295,178.344202 C53.1469741,178.344202 53.3090207,177.637679 53.3090207,177.01758 C53.3090207,176.488228 53.1469741,176.133886 52.9849275,175.956715 C52.8228808,175.779544 52.4145233,175.602373 51.6021295,175.602373 C47.2117461,175.425202 44.202,176.486067 44.6903005,165.970321 L46.4792953,126.554098 C46.4792953,125.75899 46.9675959,125.581819 47.2117461,126.288342 L63.7167358,170.652389 C64.6112332,173.037715 65.0195907,174.189326 65.4257876,175.248031 C65.5878342,175.690959 65.8319845,176.220311 66.4023886,176.220311 C66.9727927,176.220311 67.2147824,175.690959 67.3789896,175.248031 C68.1092798,173.480642 67.7030829,174.187166 69.0858808,170.652389 L86.4875285,126.022585 C86.7316788,125.316062 87.055772,125.050306 87.2199793,125.050306 C87.3820259,125.050306 87.5440725,125.493233 87.5440725,126.199756 L88.6027772,167.560539 C88.8469275,176.574653 85.0247876,175.338777 81.5289016,175.602373 C80.7964508,175.690959 79.9019534,175.779544 79.9019534,177.01542 C79.9019534,177.546933 80.2260466,178.342041 81.6909482,178.342041 C85.0247876,178.342041 88.2765233,177.810528 91.6103627,177.810528 C94.9442021,177.810528 98.3601451,178.342041 101.693984,178.342041 C103.238829,178.342041 103.403036,177.635518 103.403036,177.01542 C103.403036,175.779544 102.996839,175.690959 100.557497,175.513788 C97.3057617,175.425202 96.0850104,174.364337 95.9229637,169.239342 L94.5401658,125.934 C94.3781192,120.279653 95.3525596,119.484544 99.2568031,119.307373 C101.614041,119.130202 102.184446,119.130202 102.184446,117.805741 C102.184446,117.185642 102.022399,116.479119 100.475394,116.479119 C98.5243523,116.479119 96.5733109,116.65629 94.7022124,116.65629 C92.9132176,116.65629 91.2063264,116.479119 89.0111347,116.479119 C86.895886,116.479119 86.9801503,117.010632 86.7338394,117.62857 L69.3321917,162.083363 C69.0880415,162.789886 68.9259948,163.144228 68.7639482,163.144228 C68.6019016,163.144228 68.4398549,162.789886 68.1957047,162.083363 L52.0083264,118.069337 Z" id="Path" fill="#FFFFFF"></path>
                <path d="M140.405845,138.394306 C140.567891,136.892674 140.079591,136.451907 139.511347,135.920394 C136.583705,133.357896 131.136777,132.208446 127.232534,132.208446 C113.004839,132.208446 103.083264,144.668751 103.083264,158.014912 C103.083264,170.652389 112.110342,180.210979 124.631145,180.210979 C132.273264,180.210979 137.316155,176.483907 139.917544,173.303472 C140.729938,172.331192 140.894145,171.801839 140.894145,171.447497 C140.894145,170.740974 140.570052,170.652389 140.243798,170.652389 C139.837601,170.652389 139.431404,170.918145 138.861,171.447497 C137.154109,172.95129 133.902373,176.04314 128.127031,176.04314 C119.834565,176.04314 110.321347,169.502938 110.321347,155.804596 C110.321347,143.167119 118.615974,134.859528 126.096047,134.859528 C131.380927,134.859528 133.738166,139.100829 135.853415,142.724192 C136.665808,144.137238 137.398259,145.729617 138.698953,145.729617 C139.755497,145.729617 139.917544,144.49158 140.001808,143.34429 L140.405845,138.394306 Z M160.015648,118.069337 C159.445244,116.479119 159.445244,116.479119 158.550746,116.479119 C157.818295,116.479119 157.167948,116.567705 156.435497,116.567705 C155.216907,116.65629 153.914052,116.65629 152.695461,116.65629 C147.490523,116.65629 147.898881,116.479119 145.621585,116.479119 C144.076741,116.479119 143.912534,117.274228 143.912534,117.805741 C143.912534,118.160083 143.994637,119.218788 145.457378,119.218788 C146.513922,119.218788 147.488363,119.130202 148.547067,119.218788 C152.287104,119.484544 152.042953,122.66714 151.880907,125.581819 L149.197415,167.208358 C148.629171,176.576813 146.107725,175.427363 142.773886,175.604534 C142.041435,175.604534 141.149098,175.87029 141.149098,177.01758 C141.149098,178.255617 142.287746,178.344202 142.938093,178.344202 C145.621585,178.344202 148.305078,177.812689 150.98857,177.812689 C153.834109,177.812689 156.761751,178.344202 159.60729,178.344202 C161.152135,178.344202 161.316342,177.637679 161.316342,177.01758 C161.316342,176.488228 161.152135,176.133886 160.990088,175.956715 C160.828041,175.779544 160.419684,175.602373 159.60729,175.602373 C155.216907,175.425202 152.207161,176.486067 152.695461,165.970321 L154.484456,126.551938 C154.484456,125.756829 154.972756,125.579658 155.216907,126.286181 L171.724057,170.650228 C172.618554,173.035554 173.024751,174.187166 173.430948,175.24587 C173.592995,175.688798 173.837145,176.21815 174.407549,176.21815 C174.977953,176.21815 175.219943,175.688798 175.38415,175.24587 C176.116601,173.478482 175.710404,174.185005 177.093202,170.650228 L194.492689,126.020425 C194.736839,125.313902 195.063093,125.048145 195.22514,125.048145 C195.387187,125.048145 195.549233,125.491073 195.549233,126.197596 L196.605777,167.558378 C196.849927,176.572492 193.027788,175.336617 189.531902,175.600212 C188.799451,175.688798 187.907114,175.777383 187.907114,177.013259 C187.907114,177.544772 188.231207,178.339881 189.696109,178.339881 C193.029948,178.339881 196.281684,177.808368 199.615523,177.808368 C202.949363,177.808368 206.365306,178.339881 209.696984,178.339881 C211.24615,178.339881 211.406036,177.633358 211.406036,177.013259 C211.406036,175.777383 210.999839,175.688798 208.560497,175.511627 C205.308762,175.423041 204.08801,174.362176 203.925964,169.237181 L202.543166,125.931839 C202.381119,120.277492 203.35556,119.482383 207.259803,119.305212 C209.617041,119.128041 210.187446,119.128041 210.187446,117.80358 C210.187446,117.183482 210.02756,116.476959 208.480554,116.476959 C206.529513,116.476959 204.576311,116.65413 202.707373,116.65413 C200.918378,116.65413 199.209326,116.476959 197.016295,116.476959 C194.901047,116.476959 194.98315,117.008472 194.739,117.626409 L177.337352,162.081202 C177.093202,162.787725 176.931155,163.142067 176.766948,163.142067 C176.604902,163.142067 176.442855,162.787725 176.198705,162.081202 L160.015648,118.069337 Z M241.665544,141.136135 C241.745487,138.571477 241.505658,132.210606 231.175725,132.210606 C223.777756,132.210606 218.495036,135.745383 216.135637,137.778528 C213.696295,139.811674 211.092746,142.992109 211.092746,146.174705 C211.092746,146.881228 211.092746,147.587751 212.477705,147.587751 C217.680482,147.587751 218.574979,143.875803 219.145383,142.197 C219.795731,140.25244 222.070865,134.684518 229.146902,134.684518 C235.079969,134.684518 234.755876,139.280161 234.675933,143.16928 L234.431782,153.685026 C234.431782,154.834477 233.781435,155.275244 232.072383,155.983927 C216.783824,162.167627 211.740933,167.029026 211.740933,172.508363 C211.740933,175.513788 213.125891,180.210979 218.979016,180.210979 C222.636948,180.210979 226.541192,178.886518 232.558523,173.480642 C233.288813,172.860544 233.532964,172.685534 233.697171,172.685534 C234.021264,172.685534 234.103368,173.126301 234.183311,173.303472 C234.427461,174.452922 235.488326,180.210979 240.284907,180.210979 C242.639984,180.210979 245.079326,178.532176 247.276679,176.306736 C248.086912,175.511627 248.821523,174.627933 248.821523,174.009995 C248.821523,173.392057 248.331062,173.126301 247.842762,173.126301 C247.436565,173.126301 247.112472,173.657813 246.624171,174.09858 C246.138031,174.541508 244.91944,175.511627 243.698689,175.511627 C240.935254,175.511627 241.015197,171.533922 241.015197,169.943705 L241.015197,167.558378 L241.665544,141.136135 Z M234.183311,165.084466 C234.023425,171.095316 228.820648,175.159446 224.021907,175.159446 C220.117663,175.159446 219.629363,171.801839 219.629363,169.768694 C219.629363,164.023601 226.461249,160.313813 231.910337,158.280668 C233.211031,157.749155 233.615067,157.749155 233.779275,157.749155 C234.429622,157.749155 234.349679,158.369254 234.349679,158.987192 L234.183311,165.084466 Z M281.19628,135.568212 C281.19628,134.507347 280.872187,134.241591 279.891264,133.889409 C276.965782,132.828544 274.528601,132.210606 270.868508,132.210606 C260.378689,132.210606 255.659891,138.750808 255.659891,145.643192 C255.659891,154.657306 264.527083,156.865461 270.133896,159.075777 C272.897332,160.136642 277.536187,162.256212 277.536187,168.619244 C277.536187,174.805104 272.169202,177.987699 267.046368,177.987699 C260.214482,177.987699 258.099233,173.657813 257.204736,168.707829 C256.880642,167.029026 256.798539,164.112187 255.335798,164.112187 C254.117207,164.112187 253.955161,166.497513 253.955161,168.353487 L253.870896,174.627933 C253.790953,178.16487 262.087741,180.210979 266.720114,180.210979 C276.557425,180.210979 283.469254,173.480642 283.469254,165.261637 C283.469254,156.247523 277.371979,153.59644 272.493295,151.651881 L268.668995,150.150249 C265.41942,148.912212 261.350969,146.615472 261.350969,142.197 C261.350969,139.10299 263.304171,134.418762 269.483549,134.418762 C275.662927,134.418762 277.289876,139.014404 278.020166,140.781793 C278.426363,141.754073 278.994606,143.964389 279.973368,143.964389 C281.274062,143.964389 281.191959,141.756233 281.191959,140.341026 L281.191959,135.568212 L281.19628,135.568212 Z M297.63429,125.756829 C297.63429,125.225316 297.63429,124.255197 296.739793,124.255197 C295.601145,124.255197 295.274891,125.579658 294.380394,127.347047 C292.915492,130.263886 290.966611,132.208446 287.712715,134.150845 C286.738275,134.682358 285.92372,135.034539 285.92372,136.006819 C285.92372,136.361161 286.16787,136.979098 287.062368,136.979098 L289.99001,136.979098 C290.800244,136.979098 290.800244,137.862793 290.800244,138.392145 L290.800244,168.794254 C290.800244,173.919249 292.185202,180.208819 299.667435,180.208819 C302.757124,180.208819 305.276409,179.147953 307.715751,176.836088 C309.831,174.802943 310.07515,173.919249 310.07515,173.564907 C310.07515,172.858383 309.504746,172.15186 308.206212,173.29915 C306.661368,174.623611 304.872373,176.038819 302.433031,176.038819 C297.714233,176.038819 297.63429,169.850798 297.63429,165.257316 L297.63429,139.278 C297.63429,138.394306 297.87844,137.599197 299.099192,137.599197 L307.962062,137.599197 C308.776617,137.599197 308.936503,137.510611 309.016446,136.538332 L309.10071,135.036699 C309.180653,134.06442 308.530306,134.06442 307.962062,134.06442 L299.099192,134.06442 C298.204694,134.06442 297.63429,133.357896 297.63429,132.562788 L297.63429,125.756829 Z M351.232834,148.205689 C352.613472,148.205689 352.857622,147.499166 352.857622,146.615472 C352.857622,142.814938 349.523782,132.210606 335.784389,132.210606 C323.179321,132.210606 314.562762,142.814938 314.562762,156.338269 C314.562762,170.125197 323.263585,180.215301 335.049777,180.215301 C343.670658,180.215301 347.978938,176.222472 350.824477,172.953451 C352.373642,171.186062 352.533528,170.302368 352.533528,169.85944 C352.533528,169.152917 351.963124,169.064332 351.559088,169.064332 C350.824477,169.064332 350.340497,170.036611 348.549342,171.626829 C346.35415,173.571389 343.182358,175.161606 338.547824,175.161606 C328.546306,175.161606 321.798684,166.76543 321.798684,155.718171 C321.798684,148.825788 322.773124,148.205689 324.80843,148.205689 L351.232834,148.205689 Z M325.292409,145.818202 C324.562119,145.818202 323.587679,145.729617 323.587679,144.402995 C323.587679,143.167119 324.722005,141.311145 325.372352,140.338865 C327.731751,137.067684 331.553891,134.859528 336.028539,134.859528 C341.717456,134.859528 345.13556,138.30572 345.13556,141.22256 C345.13556,145.727456 339.768575,145.641031 334.889891,145.727456 L325.292409,145.818202 Z M362.055389,170.123036 C362.055389,173.482803 361.731295,175.690959 357.667166,175.779544 C356.692725,175.779544 355.471974,175.779544 355.471974,177.01542 C355.471974,178.342041 356.936876,178.342041 357.991259,178.342041 C360.594808,178.342041 363.273979,177.899114 365.877528,177.899114 C369.051482,177.899114 372.221114,178.342041 375.388585,178.342041 C376.44729,178.342041 377.912192,178.342041 377.912192,177.01542 C377.912192,176.397482 377.503834,175.86813 376.937751,175.86813 L375.719161,175.779544 C372.871461,175.602373 368.887275,175.86813 368.887275,170.123036 L368.887275,150.679601 C368.887275,142.989948 373.115611,138.482891 375.554953,138.482891 C377.099798,138.482891 377.830088,139.720927 378.482596,140.516036 C379.292829,141.488316 380.187326,142.37201 381.652228,142.37201 C383.767477,142.37201 385.556472,140.693207 385.556472,138.394306 C385.556472,135.743223 383.931684,132.826383 380.02744,132.826383 C375.308642,132.826383 372.709415,136.449746 369.131425,141.399731 C368.967218,141.665487 368.807332,141.665487 368.31687,141.665487 C368.156984,141.665487 368.236927,141.22472 368.236927,140.693207 L368.236927,135.477466 C368.236927,133.357896 368.807332,131.676933 367.34243,131.676933 C366.772026,131.676933 366.527876,131.942689 366.203782,132.29487 C364.658938,133.973674 362.710057,136.449746 357.176705,139.012244 C356.610622,139.278 356.122321,139.543756 356.122321,140.25028 C356.122321,141.045389 356.772668,141.133974 357.176705,141.133974 L358.071202,141.133974 C360.430601,141.133974 362.055389,141.22256 362.055389,145.904627 L362.055389,170.123036 Z M44.5757876,197.085435 C44.5757876,191.243114 46.3691036,192.044705 48.6852902,191.874016 C49.1066114,191.874016 49.7396736,191.759503 49.7396736,190.957912 C49.7396736,190.156321 49.0029016,190.100145 48.6334352,190.100145 C46.4728135,190.100145 44.3662073,190.443684 42.2055855,190.443684 C40.0449637,190.443684 37.9383575,190.100145 35.7777358,190.100145 C34.7752073,190.100145 34.6714974,190.558197 34.6714974,190.957912 C34.6714974,191.703326 34.9869482,191.815679 35.6718653,191.874016 C38.0420674,192.046865 39.8332228,191.186938 39.8332228,197.085435 L39.8332228,218.330829 C39.8332228,223.771275 40.5721554,231.396109 53.3738394,231.396109 C67.7052435,231.396109 67.7570984,220.90629 67.7570984,218.330829 L67.7570984,197.085435 C67.7570984,191.301451 69.5482539,191.930192 71.7088756,191.874016 C72.7632591,191.874016 72.7632591,191.243114 72.7632591,190.957912 C72.7632591,190.556036 72.6573886,190.100145 71.6570207,190.100145 C70.0235907,190.100145 68.3361451,190.443684 66.7048756,190.443684 C64.9655751,190.443684 63.2284352,190.100145 61.4891347,190.100145 C61.0137979,190.100145 60.3828964,190.214658 60.3828964,190.957912 C60.3828964,191.759503 61.0137979,191.874016 61.4372798,191.874016 C64.0710777,192.046865 65.9681036,191.243114 65.9681036,197.085435 L65.9681036,218.330829 C65.9681036,220.791777 65.8103782,229.723788 54.3763679,229.723788 C50.8999275,229.723788 44.5757876,229.03671 44.5757876,218.330829 L44.5757876,197.085435 Z M79.0485078,224.860228 C79.0485078,228.522482 77.5728031,228.41013 76.2029689,228.522482 L75.4121813,228.580819 C75.0448756,228.580819 74.7812798,228.922197 74.7812798,229.324073 C74.7812798,230.184 75.7297927,230.184 76.4147098,230.184 C78.0481399,230.184 79.629715,229.952813 81.2631451,229.952813 C82.8965751,229.952813 84.4759896,230.184 86.1094197,230.184 C86.7943368,230.184 87.7428497,230.184 87.7428497,229.324073 C87.7428497,228.922197 87.4792539,228.580819 87.1119482,228.580819 L86.3211606,228.522482 C84.9513264,228.407969 83.4756218,228.522482 83.4756218,224.860228 L83.4756218,209.969223 C83.4756218,205.79058 88.2700415,203.215119 91.3791762,203.215119 C98.491943,203.215119 98.3342176,210.371098 98.3342176,212.261642 L98.3342176,224.862389 C98.3342176,227.035974 98.1246373,228.470627 95.4908394,228.524642 C94.8577772,228.524642 94.0669896,228.524642 94.0669896,229.326233 C94.0669896,230.186161 95.0155026,230.186161 95.7004197,230.186161 C97.3338497,230.186161 98.9154249,229.954974 100.548855,229.954974 C102.182285,229.954974 103.761699,230.186161 105.39513,230.186161 C106.080047,230.186161 107.02856,230.186161 107.02856,229.326233 C107.02856,228.524642 106.237772,228.524642 105.60471,228.524642 C102.970912,228.470627 102.761332,227.035974 102.761332,224.862389 L102.761332,211.460052 C102.761332,200.981036 95.4908394,200.296119 93.2243472,200.296119 C89.5361658,200.296119 87.2178187,202.357352 86.0057098,203.502482 C84.3204249,205.105663 84.056829,205.622052 83.7413782,205.622052 C83.320057,205.622052 83.320057,205.220176 83.320057,204.820461 L83.320057,202.644715 C83.320057,201.156047 83.3719119,200.927021 83.3719119,200.583482 C83.3719119,200.29828 83.2141865,200.181606 82.8987358,200.181606 C82.583285,200.181606 82.423399,200.296119 82.1619637,200.583482 C81.0557254,201.786948 80.6862591,202.759228 75.8918394,204.934974 C75.5223731,205.107824 75.2069223,205.278513 75.2069223,205.736565 C75.2069223,206.250793 75.6282435,206.30913 75.8918394,206.30913 L76.4730466,206.30913 C78.0006062,206.30913 79.052829,206.365306 79.052829,209.40314 L79.052829,224.860228 L79.0485078,224.860228 Z M117.21157,202.640394 C117.21157,201.436927 117.632891,200.177285 116.684378,200.177285 C116.314912,200.177285 116.157187,200.350135 115.893591,200.579161 C114.469741,202.124005 114.04842,202.925596 109.623466,204.930653 C109.254,205.103503 108.938549,205.274192 108.938549,205.732244 C108.938549,206.246472 109.35987,206.304808 109.623466,206.304808 L110.202513,206.304808 C111.730073,206.304808 112.784456,206.360984 112.784456,209.398819 L112.784456,224.860228 C112.784456,228.522482 111.308751,228.41013 109.938917,228.522482 L109.14813,228.580819 C108.780824,228.580819 108.517228,228.922197 108.517228,229.324073 C108.517228,230.184 109.465741,230.184 110.150658,230.184 C111.784088,230.184 113.365663,229.952813 114.999093,229.952813 C116.632523,229.952813 118.211938,230.184 119.845368,230.184 C120.530285,230.184 121.478798,230.184 121.478798,229.324073 C121.478798,228.522482 120.68801,228.522482 120.057109,228.522482 C117.159715,228.407969 117.21157,226.631938 117.21157,224.860228 L117.21157,202.640394 Z M114.787352,189.52542 C113.048052,189.52542 112.151394,191.128601 112.151394,192.61943 C112.151394,194.222611 112.942181,196.054819 114.839207,196.054819 C116.418622,196.054819 117.473005,194.909689 117.473005,192.848456 C117.475166,190.84556 116.420782,189.52542 114.787352,189.52542 Z M130.505876,206.650508 C129.820959,204.759964 130.34815,203.385808 132.351047,203.215119 C133.457285,203.100606 134.299927,203.271295 134.299927,202.357352 C134.299927,201.499585 133.351415,201.499585 132.666497,201.499585 C130.875342,201.499585 129.136041,201.726451 127.344886,201.726451 C125.713617,201.726451 124.132041,201.499585 122.498611,201.499585 C121.813694,201.499585 120.856539,201.499585 120.856539,202.357352 C120.856539,203.158943 121.655969,203.158943 122.289031,203.158943 C123.658865,203.158943 124.186057,202.986093 125.925358,207.568772 L133.774896,228.526803 C134.356104,230.129984 134.250233,230.257461 134.513829,230.825705 C134.617539,231.056891 134.82928,231.40043 135.250601,231.40043 C135.620067,231.40043 135.831808,231.059052 135.935518,230.825705 C136.041389,230.598839 136.093244,230.369813 136.147259,230.129984 C136.304984,229.615756 136.46271,229.099368 136.674451,228.641316 L144.52399,210.204731 C145.787953,207.28357 147.000062,203.331793 149.687876,203.161104 L150.474342,203.098446 C150.843808,203.098446 151.105244,202.754907 151.105244,202.355192 C151.105244,201.609777 150.368472,201.497425 149.473974,201.497425 C148.31372,201.497425 147.155627,201.72429 145.995373,201.72429 C144.361943,201.72429 142.782528,201.497425 141.149098,201.497425 C140.464181,201.497425 139.515668,201.497425 139.515668,202.355192 C139.515668,203.042269 140.094715,203.098446 140.567891,203.156782 C142.043596,203.212959 144.467813,203.098446 144.467813,205.218016 C144.467813,205.96343 144.152363,206.821197 141.518565,213.175585 L137.672658,222.397119 C137.514933,222.742819 137.039596,223.946285 136.827855,223.946285 C136.618275,223.946285 136.406534,223.259207 136.091083,222.397119 L130.505876,206.650508 Z M174.673306,210.656301 C175.569964,210.656301 175.727689,210.200409 175.727689,209.625684 C175.727689,207.162575 173.567067,200.291798 164.663145,200.291798 C156.495995,200.291798 150.910788,207.162575 150.910788,215.926057 C150.910788,224.860228 156.54785,231.396109 164.189969,231.396109 C169.773016,231.396109 172.566699,228.809845 174.40971,226.690275 C175.410078,225.547306 175.515948,224.97258 175.515948,224.685218 C175.515948,224.229326 175.146482,224.17099 174.885047,224.17099 C174.40971,224.17099 174.094259,224.799731 172.936166,225.830347 C171.512316,227.09215 169.459725,228.122767 166.454301,228.122767 C159.972435,228.122767 155.601497,222.682321 155.601497,215.526342 C155.601497,211.058176 156.232399,210.656301 157.550378,210.656301 L174.673306,210.656301 Z M157.865829,209.111456 C157.392653,209.111456 156.759591,209.053119 156.759591,208.195352 C156.759591,207.391601 157.498523,206.190295 157.919845,205.559394 C159.509883,203.328709 162.081497,202.005865 164.82087,202.009492 C168.509052,202.009492 170.721528,204.243575 170.721528,206.131959 C170.721528,209.050959 167.245088,208.996943 164.084098,209.050959 L157.865829,209.111456 Z M182.276534,224.860228 C182.276534,227.033813 182.066953,228.468466 179.430995,228.522482 C178.800093,228.522482 178.009306,228.522482 178.009306,229.324073 C178.009306,230.184 178.957819,230.184 179.642736,230.184 C181.328021,230.184 183.067321,229.896637 184.752606,229.896637 C186.807358,229.896637 188.862109,230.184 190.919021,230.184 C191.601777,230.184 192.55029,230.184 192.55029,229.324073 C192.55029,228.922197 192.286694,228.580819 191.919389,228.580819 L191.128601,228.522482 C189.28343,228.407969 186.703648,228.580819 186.703648,224.860228 L186.703648,212.259482 C186.703648,207.279249 189.443316,204.358088 191.024891,204.358088 C192.025259,204.358088 192.500596,205.159679 192.921917,205.673907 C193.449109,206.304808 194.028155,206.877373 194.976668,206.877373 C195.655816,206.877504 196.306452,206.604359 196.781985,206.119478 C197.257518,205.634597 197.517947,204.978768 197.504596,204.299751 C197.504596,202.582057 196.450212,200.691513 193.922285,200.691513 C190.867166,200.691513 189.181881,203.040109 186.861373,206.246472 C186.755503,206.419321 186.649632,206.419321 186.334181,206.419321 C186.228311,206.419321 186.280166,206.131959 186.280166,205.78842 L186.280166,202.411368 C186.280166,201.037212 186.649632,199.948259 185.701119,199.948259 C185.331653,199.948259 185.173927,200.121109 184.962187,200.350135 C183.961819,201.436927 182.697855,203.042269 179.113383,204.701627 C178.746078,204.874477 178.430627,205.045166 178.430627,205.503218 C178.430627,206.017446 178.851948,206.075782 179.113383,206.075782 L179.694591,206.075782 C181.22215,206.075782 182.276534,206.131959 182.276534,209.169793 L182.276534,224.860228 Z M216.066497,202.467544 C216.066497,201.780466 215.854756,201.609777 215.221694,201.378591 C213.326829,200.691513 211.745254,200.291798 209.372891,200.291798 C202.575575,200.291798 199.520456,204.528777 199.520456,208.996943 C199.520456,214.837104 205.261228,216.267435 208.897554,217.697767 C210.68871,218.384845 213.691974,219.761161 213.691974,223.883627 C213.691974,227.89158 210.215534,229.952813 206.894658,229.952813 C202.469705,229.952813 201.09987,227.150487 200.518663,223.944124 C200.306922,222.855171 200.255067,220.964627 199.306554,220.964627 C198.515767,220.964627 198.409896,222.509472 198.409896,223.710777 L198.358041,227.779228 C198.306187,230.071648 203.679653,231.396109 206.682917,231.396109 C213.056751,231.396109 217.537881,227.031653 217.537881,221.707881 C217.537881,215.86772 213.583943,214.150026 210.422953,212.892544 L207.946881,211.918104 C205.838114,211.116513 203.204316,209.625684 203.204316,206.76286 C203.204316,204.759964 204.46828,201.72213 208.471912,201.72213 C212.475544,201.72213 213.532088,204.699466 214.005264,205.844596 C214.266699,206.475497 214.638326,207.90799 215.271389,207.90799 C216.11187,207.90799 216.060016,206.475497 216.060016,205.559394 L216.060016,202.467544 L216.066497,202.467544 Z M228.516,202.640394 C228.516,201.436927 228.937321,200.177285 227.99313,200.177285 C227.621503,200.177285 227.465938,200.350135 227.200181,200.579161 C225.778492,202.124005 225.35501,202.925596 220.930057,204.930653 C220.562751,205.103503 220.247301,205.274192 220.247301,205.732244 C220.247301,206.246472 220.668622,206.304808 220.930057,206.304808 L221.513425,206.304808 C223.040984,206.304808 224.095368,206.360984 224.095368,209.398819 L224.095368,224.860228 C224.095368,228.522482 222.617503,228.41013 221.247668,228.522482 L220.459041,228.580819 C220.091736,228.580819 219.825979,228.922197 219.825979,229.324073 C219.825979,230.184 220.774492,230.184 221.459409,230.184 C223.092839,230.184 224.674415,229.952813 226.307845,229.952813 C227.941275,229.952813 229.52285,230.184 231.15628,230.184 C231.839036,230.184 232.78971,230.184 232.78971,229.324073 C232.78971,228.522482 231.996762,228.522482 231.363699,228.522482 C228.468466,228.407969 228.520321,226.631938 228.520321,224.860228 L228.520321,202.640394 L228.516,202.640394 Z M226.093943,189.52542 C224.354642,189.52542 223.460145,191.128601 223.460145,192.61943 C223.460145,194.222611 224.248772,196.054819 226.143637,196.054819 C227.725212,196.054819 228.781756,194.909689 228.781756,192.848456 C228.781756,190.84556 227.725212,189.52542 226.093943,189.52542 Z M242.918705,196.113155 C242.918705,195.769617 242.918705,195.138715 242.335337,195.138715 C241.600725,195.138715 241.388984,195.996482 240.807777,197.143772 C239.861425,199.034316 238.597461,200.293959 236.490855,201.553601 C235.857793,201.89714 235.330601,202.126166 235.330601,202.754907 C235.330601,202.983933 235.486166,203.385808 236.069534,203.385808 L237.964399,203.385808 C238.491591,203.385808 238.491591,203.958373 238.491591,204.301912 L238.491591,224.000301 C238.491591,227.321176 239.386088,231.398269 244.234523,231.398269 C246.235259,231.398269 247.868689,230.711192 249.450264,229.21172 C250.817938,227.895902 250.977824,227.321176 250.977824,227.094311 C250.977824,226.634098 250.610518,226.178207 249.765715,226.921461 C248.765347,227.781389 247.605093,228.697492 246.023518,228.697492 C242.968399,228.697492 242.916544,224.689539 242.916544,221.710041 L242.916544,204.874477 C242.916544,204.301912 243.072109,203.785523 243.862896,203.785523 L249.605829,203.785523 C250.133021,203.785523 250.238891,203.729347 250.292907,203.098446 L250.342601,202.124005 C250.396617,201.495264 249.975295,201.495264 249.603668,201.495264 L243.860736,201.495264 C243.281689,201.495264 242.914383,201.037212 242.914383,200.520824 L242.914383,196.113155 L242.918705,196.113155 Z M259.948725,206.821197 C259.265969,204.986829 258.792793,203.498161 261.530301,203.212959 C262.636539,203.098446 263.479181,203.269135 263.479181,202.355192 C263.479181,201.497425 262.530668,201.497425 261.845751,201.497425 C260.158306,201.497425 258.473021,201.72429 256.785575,201.72429 C255.152145,201.72429 253.518715,201.497425 251.941461,201.497425 C251.088016,201.497425 250.506808,201.553601 250.506808,202.355192 C250.506808,203.212959 251.405627,203.156782 251.887446,203.156782 C253.888181,203.156782 253.942197,203.84386 254.787,205.96343 L263.690922,228.41013 C264.373679,230.127824 264.429855,230.596679 264.429855,230.884041 C264.429855,231.171404 264.269969,231.571119 263.846487,232.774585 L262.634378,236.095461 C261.52814,239.128974 261.156513,239.757715 259.840694,239.757715 C259.367518,239.757715 258.946197,239.703699 258.524876,239.703699 C256.841751,239.703699 255.891078,240.274104 255.891078,242.337497 C255.891078,244.055192 256.679705,244.742269 259.157938,244.742269 C262.057492,244.742269 262.001316,243.826166 262.530668,241.535907 C263.585052,237.011565 265.585788,231.972995 266.536461,229.55958 L274.913192,208.886751 C276.494767,205.049487 276.706508,203.329632 278.813114,203.158943 L279.446176,203.098446 C279.867497,203.042269 280.079238,202.698731 280.079238,202.296855 C280.079238,201.495264 279.446176,201.495264 278.707244,201.495264 C277.812746,201.495264 276.918249,201.72213 276.01943,201.72213 C274.386,201.72213 272.808746,201.495264 271.175316,201.495264 C270.488238,201.495264 269.541886,201.495264 269.541886,202.353031 C269.541886,203.154622 270.330513,203.154622 270.963575,203.154622 C273.018326,203.210798 273.912824,204.012389 273.912824,205.730083 C273.912824,206.760699 273.541197,208.020342 272.646699,210.252264 L267.484974,223.481751 C267.169523,224.229326 267.063653,224.685218 266.957782,224.685218 C266.851912,224.685218 266.746041,224.229326 266.430591,223.481751 L259.948725,206.821197 Z" id="Shape" fill="#FFFFFF" fill-rule="nonzero"></path>
                <text id="ENGINEERING" font-family="EuphemiaUCAS-Bold, Euphemia UCAS" font-size="23" font-weight="bold" letter-spacing="0.330000013" fill="#FFFFFF">
                    <tspan x="77.6620117" y="273">ENGINEERIN</tspan>
                    <tspan x="214.346289" y="273">G</tspan>
                </text>
            </g>
        </g>
    </g>
</svg>